<svg xmlns="http://www.w3.org/2000/svg" width="993" height="750" viewBox="0 0 993 750" version="1.1"><path d="M 791.302 46.746 C 796.693 46.926, 805.243 46.925, 810.302 46.744 C 815.361 46.563, 810.950 46.416, 800.500 46.417 C 790.050 46.418, 785.911 46.566, 791.302 46.746 M 839.500 49 L 832.500 49.647 839 49.724 C 842.575 49.766, 846.625 49.440, 848 49 C 850.972 48.048, 849.802 48.048, 839.500 49 M 779.768 49.725 C 781.565 49.947, 784.265 49.943, 785.768 49.715 C 787.271 49.486, 785.800 49.304, 782.500 49.310 C 779.200 49.315, 777.971 49.502, 779.768 49.725 M 810.768 56.725 C 812.565 56.947, 815.265 56.943, 816.768 56.715 C 818.271 56.486, 816.800 56.304, 813.500 56.310 C 810.200 56.315, 808.971 56.502, 810.768 56.725 M 831.083 57.359 C 831.313 57.557, 833.750 57.978, 836.500 58.296 C 839.717 58.668, 840.787 58.565, 839.500 58.007 C 837.589 57.179, 830.216 56.612, 831.083 57.359 M 658.500 60.526 L 653.500 61.860 658.500 61.305 C 663.254 60.778, 668.659 58.966, 665 59.126 C 664.175 59.162, 661.250 59.792, 658.500 60.526 M 961.936 82.350 C 959.573 83.584, 947.117 84.103, 889.250 85.384 C 883.756 85.505, 883.494 85.654, 884.889 87.855 C 885.603 88.982, 889.135 89.024, 905.874 88.105 C 928.048 86.887, 962.304 86.725, 968.391 87.808 C 973.231 88.669, 975.083 91.118, 972.840 93.691 C 971.623 95.088, 971.128 98.918, 970.665 110.500 C 970.335 118.750, 969.604 135.400, 969.041 147.500 C 968.477 159.600, 967.332 192, 966.496 219.500 C 961.625 379.757, 956.784 466.793, 948.006 551.957 C 945.284 578.361, 945.248 577.674, 949.456 579.680 C 955.582 582.601, 954.893 586.635, 948.174 587.194 L 944.500 587.500 943.345 597.500 C 941.634 612.313, 941.690 614.777, 943.750 615.361 C 944.712 615.634, 949.265 616.165, 953.866 616.543 L 962.232 617.229 961.508 612.864 C 961.110 610.464, 960.588 583.750, 960.348 553.500 C 959.938 501.901, 960.045 497.356, 962.072 480 C 963.770 465.456, 964.077 459.041, 963.505 450 C 963.105 443.675, 962.838 436.475, 962.911 434 C 963.257 422.217, 965.175 399.683, 966.442 392.500 C 970.343 370.386, 971.270 359.624, 970.632 343.820 C 970.284 335.196, 969.509 324.621, 968.909 320.320 C 968.059 314.224, 968.164 308.091, 969.385 292.500 C 970.247 281.500, 971.439 261.925, 972.033 249 C 972.627 236.075, 973.599 221.225, 974.193 216 C 975.752 202.269, 976.316 94.711, 974.857 89.212 C 972.987 82.167, 967.684 79.351, 961.936 82.350 M 144.776 84.733 C 147.128 84.945, 150.728 84.942, 152.776 84.727 C 154.824 84.512, 152.900 84.339, 148.500 84.343 C 144.100 84.346, 142.424 84.522, 144.776 84.733 M 176.280 84.736 C 178.909 84.943, 182.959 84.940, 185.280 84.731 C 187.601 84.521, 185.450 84.352, 180.500 84.355 C 175.550 84.358, 173.651 84.530, 176.280 84.736 M 864 85.789 C 864 86.224, 862.806 86.561, 861.348 86.539 C 859.889 86.518, 858.573 87.074, 858.423 87.775 C 858.273 88.476, 858.379 88.589, 858.658 88.025 C 859.350 86.630, 862.331 86.731, 863.800 88.200 C 864.733 89.133, 865 88.911, 865 87.200 C 865 85.990, 864.775 85, 864.500 85 C 864.225 85, 864 85.355, 864 85.789 M 19.299 90.916 C 12.942 94.879, 11.778 101.822, 14.005 122.500 C 16.907 149.460, 17.105 154.230, 16.029 171.274 C 15.254 183.549, 15.246 194.248, 16.001 208.500 C 16.584 219.500, 17.745 243.800, 18.581 262.500 C 19.417 281.200, 20.734 299.875, 21.508 304 L 22.916 311.500 22.487 301.500 C 22.251 296, 21.541 282.283, 20.910 271.017 C 19.245 241.332, 20.216 202.467, 23.509 167 C 26.231 137.690, 26.237 137.426, 24.522 126 C 22.257 110.913, 22.023 110, 20.427 110 C 18.888 110, 17 106.955, 17 104.472 C 17 103.559, 17.877 102.583, 18.949 102.303 C 20.468 101.906, 20.965 100.766, 21.199 97.147 C 21.450 93.267, 21.830 92.500, 23.500 92.500 C 25.138 92.500, 25.556 93.269, 25.807 96.750 C 26.045 100.039, 26.517 101, 27.891 101 C 28.868 101, 29.952 100.715, 30.300 100.366 C 30.649 100.018, 35.994 99.562, 42.179 99.354 C 48.364 99.146, 53.721 98.643, 54.083 98.238 C 54.445 97.832, 55.033 96.263, 55.390 94.750 C 55.975 92.266, 55.770 91.993, 53.269 91.930 C 48.144 91.801, 28.528 90.084, 25.500 89.499 C 23.443 89.102, 21.494 89.547, 19.299 90.916 M 68.227 90.290 C 60.466 91.219, 59.994 91.411, 60.601 93.390 C 60.957 94.551, 61.305 95.561, 61.374 95.636 C 61.443 95.711, 67.575 94.600, 75 93.167 C 87.280 90.797, 88.139 90.496, 84.500 89.839 C 79.761 88.982, 78.967 89.004, 68.227 90.290 M 902.176 93.058 C 894.848 93.474, 888.642 94.025, 888.385 94.282 C 888.128 94.539, 889.464 99.868, 891.355 106.125 C 901.058 138.230, 903.818 168.359, 904.950 254.500 C 905.333 283.650, 905.785 302.325, 905.956 296 L 906.266 284.500 907.605 301 C 908.342 310.075, 909.172 328.750, 909.451 342.500 C 909.729 356.250, 910.626 377.400, 911.445 389.500 C 914.360 432.603, 916.768 495.190, 917.100 536.500 C 917.189 547.500, 917.589 556.950, 917.990 557.500 C 919.180 559.134, 919.934 564.536, 919.307 566.936 C 918.868 568.614, 918.512 568.838, 917.877 567.835 C 917.213 566.787, 917.027 566.847, 917.015 568.113 C 917.004 569.304, 918.639 570.035, 923.250 570.903 C 926.688 571.550, 931.524 572.475, 933.999 572.958 C 936.473 573.441, 938.723 573.611, 938.999 573.336 C 939.839 572.498, 939.566 526.822, 938.171 435 C 937.440 386.875, 936.450 304.975, 935.971 253 C 935.107 159.307, 934.787 150.353, 930.943 112.173 L 929.701 99.845 925.101 100.173 C 921.014 100.463, 920.465 100.256, 920.190 98.320 C 919.827 95.772, 920.042 95.732, 943.488 93.979 C 951.731 93.362, 958.669 92.665, 958.904 92.429 C 959.584 91.749, 916.876 92.223, 902.176 93.058 M 233.768 93.725 C 235.565 93.947, 238.265 93.943, 239.768 93.715 C 241.271 93.486, 239.800 93.304, 236.500 93.310 C 233.200 93.315, 231.971 93.502, 233.768 93.725 M 961.500 97.163 C 959.300 97.551, 952.853 98.192, 947.173 98.587 C 937.313 99.272, 936.873 99.399, 937.446 101.402 C 947.852 137.817, 952.748 185.897, 955.023 274 C 955.570 295.175, 955.827 328.025, 955.595 347 C 955.362 365.975, 955.352 379.925, 955.571 378 C 956.217 372.333, 959.856 276.508, 961.988 209 C 963.074 174.625, 964.461 137.500, 965.069 126.500 C 965.678 115.500, 966.024 104.240, 965.838 101.478 L 965.500 96.456 961.500 97.163 M 863.116 103 C 863.168 107.154, 863.239 107.276, 864.044 104.585 C 864.557 102.867, 864.535 101.020, 863.988 100.085 C 863.325 98.951, 863.077 99.781, 863.116 103 M 338 101.915 C 344.449 103.467, 348.571 104.007, 347 103.094 C 346.175 102.615, 343.025 101.964, 340 101.648 C 335.841 101.213, 335.353 101.278, 338 101.915 M 60.528 104.250 C 59.877 106.239, 54.986 162.187, 55.128 166.029 C 55.201 168.003, 55.636 166.482, 56.138 162.500 C 56.624 158.650, 57.667 151.450, 58.457 146.500 C 59.248 141.550, 60.164 133.675, 60.494 129 C 61.275 117.921, 62.808 109.272, 64.607 105.792 C 66.006 103.087, 65.971 103, 63.494 103 C 62.088 103, 60.753 103.563, 60.528 104.250 M 37.694 104.732 C 35.601 104.949, 33.698 105.661, 33.465 106.314 C 33.233 106.966, 32.601 113.890, 32.062 121.701 C 31.294 132.838, 31.394 138.417, 32.528 147.560 C 33.324 153.972, 35.347 176.607, 37.024 197.859 C 38.701 219.112, 41.130 247.525, 42.421 261 L 44.768 285.500 44.891 266.500 C 45.099 234.489, 48.705 175.307, 53.512 125 C 55.723 101.863, 56.255 103.969, 48.250 104.168 C 44.538 104.261, 39.787 104.514, 37.694 104.732 M 391.550 105.897 C 392.072 106.390, 394.525 107.065, 397 107.396 L 401.500 107.998 397 106.514 C 391.756 104.785, 390.184 104.607, 391.550 105.897 M 512.250 108.474 C 508.262 110.345, 505 112.099, 505 112.373 C 505 112.826, 519.947 106.257, 520.917 105.378 C 522.213 104.202, 518.610 105.489, 512.250 108.474 M 889.047 118.083 C 889.129 120.594, 893.794 141.557, 893.899 139.889 C 893.954 139.003, 893.052 133.603, 891.893 127.889 C 889.921 118.162, 888.938 114.775, 889.047 118.083 M 937.140 123 C 937.104 123.825, 937.752 132.600, 938.579 142.500 C 939.684 155.727, 940.325 187.147, 940.996 261 C 942.209 394.450, 943.857 514.190, 944.489 514.823 C 944.770 515.104, 945.004 514.021, 945.009 512.417 C 945.014 510.813, 945.666 499.600, 946.458 487.500 C 949.851 435.667, 951.680 324.559, 950.063 268.500 C 948.412 211.246, 945.551 171.503, 940.922 141.500 C 938.873 128.224, 937.256 120.314, 937.140 123 M 64.310 146.500 C 64.315 149.800, 64.502 151.029, 64.725 149.232 C 64.947 147.435, 64.943 144.735, 64.715 143.232 C 64.486 141.729, 64.304 143.200, 64.310 146.500 M 28.711 167 C 28.353 168.375, 27.317 178.950, 26.407 190.500 C 24.321 217, 24.954 265.625, 27.924 307 C 29.049 322.675, 30.661 347.200, 31.505 361.500 C 32.350 375.800, 34.258 402.575, 35.745 421 C 39.039 461.799, 39.395 509.581, 36.624 539 C 35.718 548.625, 34.061 567.975, 32.942 582 C 30.055 618.190, 27.959 630.063, 22.918 638.794 L 21.016 642.088 24.758 641.391 C 26.816 641.008, 31.650 639.966, 35.500 639.075 L 42.500 637.456 42.732 627.978 C 42.859 622.765, 43.707 603.875, 44.615 586 C 47.253 534.095, 46.468 416.836, 42.978 341.500 C 41.699 313.878, 39.641 285.011, 36.527 251 C 35.193 236.425, 33.165 211.900, 32.020 196.500 C 29.554 163.316, 29.588 163.625, 28.711 167 M 899.336 217 C 899.336 221.125, 899.513 222.813, 899.728 220.750 C 899.944 218.688, 899.944 215.313, 899.728 213.250 C 899.513 211.188, 899.336 212.875, 899.336 217 M 50.300 236 C 50.300 239.025, 50.487 240.262, 50.716 238.750 C 50.945 237.238, 50.945 234.762, 50.716 233.250 C 50.487 231.738, 50.300 232.975, 50.300 236 M 899.811 268.750 C 899.640 275.212, 899.786 282.075, 900.135 284 C 900.484 285.925, 900.822 280.637, 900.885 272.250 C 900.948 263.863, 900.802 257, 900.561 257 C 900.319 257, 899.981 262.288, 899.811 268.750 M 49.360 275 C 49.360 280.225, 49.529 282.363, 49.735 279.750 C 49.941 277.137, 49.941 272.863, 49.735 270.250 C 49.529 267.637, 49.360 269.775, 49.360 275 M 894.015 281.083 C 894.024 282.962, 894.480 285.175, 895.030 286 C 895.728 287.048, 895.832 286.145, 895.375 283 C 894.562 277.399, 893.995 276.600, 894.015 281.083 M 45.154 318.500 C 45.077 324.550, 45.919 339.175, 47.024 351 C 48.129 362.825, 49.467 387.575, 49.997 406 C 51.457 456.775, 51.231 548.708, 49.560 583.509 C 48.768 600.004, 47.981 618.450, 47.810 624.500 L 47.500 635.500 51 635.249 C 52.925 635.112, 63.240 633.492, 73.922 631.650 C 91.860 628.557, 93.410 628.123, 94.204 625.979 C 94.795 624.380, 94.663 623.410, 93.781 622.865 C 92.828 622.276, 92.345 616.106, 91.896 598.787 C 91.325 576.817, 91.060 574.341, 87.199 555 C 82.709 532.509, 79.519 512.148, 80.355 511.312 C 80.648 511.018, 80.031 508.465, 78.982 505.639 C 69.421 479.872, 59.222 437.186, 53.592 399.378 C 50.855 380.994, 47.484 346.209, 46.142 322.500 L 45.293 307.500 45.154 318.500 M 50.300 314 C 50.300 317.025, 50.487 318.262, 50.716 316.750 C 50.945 315.238, 50.945 312.762, 50.716 311.250 C 50.487 309.738, 50.300 310.975, 50.300 314 M 73.422 332 C 73.422 343.275, 73.568 347.887, 73.746 342.250 C 73.924 336.613, 73.924 327.387, 73.746 321.750 C 73.568 316.113, 73.422 320.725, 73.422 332 M 68.370 332 C 68.370 337.775, 68.535 340.137, 68.737 337.250 C 68.939 334.363, 68.939 329.637, 68.737 326.750 C 68.535 323.863, 68.370 326.225, 68.370 332 M 902.300 355 C 902.300 358.025, 902.487 359.262, 902.716 357.750 C 902.945 356.238, 902.945 353.762, 902.716 352.250 C 902.487 350.738, 902.300 351.975, 902.300 355 M 894.168 371.125 C 894.076 372.019, 893.715 374.269, 893.368 376.125 C 892.881 378.725, 893.011 379.243, 893.936 378.382 C 894.628 377.737, 894.967 375.618, 894.736 373.382 C 894.516 371.247, 894.261 370.231, 894.168 371.125 M 87.666 383 C 88.004 386.025, 88.442 388.688, 88.640 388.917 C 89.486 389.896, 88.880 380.361, 88.010 379 C 87.369 377.998, 87.255 379.326, 87.666 383 M 94.100 400.083 C 94.155 403.063, 94.551 406.625, 94.981 408 C 95.421 409.411, 95.536 407.232, 95.243 403 C 94.628 394.117, 93.958 392.409, 94.100 400.083 M 95.729 416.604 C 95.328 417.005, 95.045 419.171, 95.100 421.417 L 95.201 425.500 96.123 421.567 C 97.098 417.405, 96.939 415.394, 95.729 416.604 M 33.360 482 C 33.360 487.225, 33.529 489.363, 33.735 486.750 C 33.941 484.137, 33.941 479.863, 33.735 477.250 C 33.529 474.637, 33.360 476.775, 33.360 482 M 909.737 505.250 C 909.443 507.587, 909.536 511.525, 909.943 514 C 910.571 517.819, 910.701 517.175, 910.807 509.750 C 910.876 504.938, 910.783 501, 910.602 501 C 910.420 501, 910.031 502.913, 909.737 505.250 M 759.728 549.722 C 761.503 549.943, 764.653 549.946, 766.728 549.730 C 768.802 549.513, 767.350 549.333, 763.500 549.328 C 759.650 549.324, 757.952 549.501, 759.728 549.722 M 788.728 549.722 C 790.503 549.943, 793.653 549.946, 795.728 549.730 C 797.802 549.513, 796.350 549.333, 792.500 549.328 C 788.650 549.324, 786.952 549.501, 788.728 549.722 M 754.250 554.716 C 755.763 554.945, 758.237 554.945, 759.750 554.716 C 761.263 554.487, 760.025 554.300, 757 554.300 C 753.975 554.300, 752.737 554.487, 754.250 554.716 M 912.320 562 C 912.320 565.575, 912.502 567.038, 912.723 565.250 C 912.945 563.462, 912.945 560.538, 912.723 558.750 C 912.502 556.962, 912.320 558.425, 912.320 562 M 370.750 565.723 C 372.538 565.945, 375.462 565.945, 377.250 565.723 C 379.038 565.502, 377.575 565.320, 374 565.320 C 370.425 565.320, 368.962 565.502, 370.750 565.723 M 366.797 570.745 C 371.361 570.930, 378.561 570.929, 382.797 570.742 C 387.034 570.555, 383.300 570.404, 374.500 570.405 C 365.700 570.406, 362.234 570.559, 366.797 570.745 M 806.768 571.725 C 808.565 571.947, 811.265 571.943, 812.768 571.715 C 814.271 571.486, 812.800 571.304, 809.500 571.310 C 806.200 571.315, 804.971 571.502, 806.768 571.725 M 283.784 572.738 C 286.689 572.941, 291.189 572.939, 293.784 572.734 C 296.378 572.528, 294 572.363, 288.500 572.365 C 283 572.368, 280.878 572.536, 283.784 572.738 M 332.500 572.949 C 334.401 573.815, 341.794 574.411, 340.917 573.628 C 340.688 573.424, 338.250 572.982, 335.500 572.648 C 332.134 572.238, 331.154 572.336, 332.500 572.949 M 302.296 577.744 C 306.583 577.932, 313.333 577.931, 317.296 577.742 C 321.258 577.552, 317.750 577.399, 309.500 577.400 C 301.250 577.401, 298.008 577.556, 302.296 577.744 M 917.543 577.931 C 916.606 579.447, 918.015 579.780, 928.002 580.406 L 937.500 581 932.500 579.078 C 927.198 577.039, 918.506 576.373, 917.543 577.931 M 731 579.587 C 728.525 579.782, 717.725 580.452, 707 581.075 C 696.275 581.698, 684.575 582.521, 681 582.903 L 674.500 583.599 683 584.376 C 687.675 584.803, 700.050 586.070, 710.500 587.191 C 746.404 591.043, 788.991 590.748, 829.500 586.365 C 850.565 584.086, 850.511 583.911, 828 581.520 C 815.995 580.244, 801.147 579.694, 773.500 579.500 C 752.600 579.353, 733.475 579.392, 731 579.587 M 856 580.051 C 858.475 580.491, 862.750 580.833, 865.500 580.811 L 870.500 580.770 866.500 579.943 C 864.300 579.488, 860.025 579.146, 857 579.183 L 851.500 579.250 856 580.051 M 884.750 582.654 C 883.237 582.917, 882.008 583.440, 882.018 583.816 C 882.032 584.363, 896.045 588.207, 910.750 591.699 C 912.797 592.185, 913 591.873, 913 588.244 C 913 584.406, 912.859 584.234, 909.250 583.669 C 903.479 582.767, 887.827 582.119, 884.750 582.654 M 917.661 587.133 C 916.275 592.311, 916.909 593.977, 921.500 597.213 C 923.975 598.958, 926 600.987, 926 601.724 C 926 603.889, 923.177 604.346, 920.527 602.610 C 919.176 601.724, 917.830 601, 917.535 601 C 917.241 601, 917 603.680, 917 606.955 C 917 612.905, 917.002 612.910, 920.250 613.403 C 924.169 613.997, 934.973 614.927, 935.067 614.678 C 935.545 613.419, 937.387 586.739, 937.012 586.508 C 936.729 586.332, 932.401 585.869, 927.396 585.477 C 918.403 584.774, 918.287 584.793, 917.661 587.133 M 846.500 589.054 C 819.640 593.147, 800.561 594.429, 766 594.464 C 738.002 594.493, 729.051 594.129, 711.500 592.252 C 661.202 586.870, 645.281 586.640, 624.072 590.987 C 616.058 592.630, 601.893 596.005, 592.596 598.487 C 583.299 600.969, 575.536 603, 575.346 603 C 575.156 603, 575 603.675, 575 604.500 C 575 605.325, 574.100 606.900, 573 608 C 571.399 609.601, 569.653 610.003, 564.250 610.015 C 559.523 610.026, 557.950 610.321, 559 611 C 560.226 611.792, 560.111 611.972, 558.367 611.985 C 557.029 611.994, 556.023 612.806, 555.669 614.160 L 555.104 616.319 583.302 615.671 C 598.811 615.314, 626.800 614.353, 645.500 613.535 C 750.812 608.931, 867.224 608.514, 906.294 612.600 L 912.088 613.207 911.794 605.387 L 911.500 597.568 902.511 594.782 C 889.911 590.877, 870.278 586.979, 863.885 587.113 C 860.923 587.175, 853.100 588.048, 846.500 589.054 M 331.500 595.945 C 312.249 599.397, 273.687 607.173, 266.500 609.053 C 264.850 609.484, 270.925 609.536, 280 609.169 C 299.680 608.371, 342.739 608.324, 434 609 C 496.560 609.463, 537.414 608.919, 538.728 607.605 C 539.029 607.305, 537.975 607.080, 536.387 607.106 C 534.799 607.132, 530.125 606.490, 526 605.680 C 521.300 604.756, 517.871 604.541, 516.816 605.103 C 514.076 606.562, 508.804 606.094, 504.141 603.978 C 501.743 602.890, 499.043 601.993, 498.141 601.985 C 496.715 601.971, 496.696 601.841, 498 600.986 C 499.056 600.294, 498.492 600.197, 496.095 600.657 C 493.653 601.127, 492.890 600.987, 493.399 600.163 C 493.854 599.428, 493.279 598.994, 491.805 598.960 C 484.596 598.794, 482 598.477, 482 597.762 C 482 597.322, 480.963 597.222, 479.695 597.540 C 478.427 597.859, 460.540 597.214, 439.945 596.108 C 419.350 595.003, 392.600 593.833, 380.500 593.509 C 368.400 593.185, 357.150 592.754, 355.500 592.550 C 353.850 592.346, 343.050 593.874, 331.500 595.945 M 556.667 600.667 C 556.300 601.033, 556 602.383, 556 603.667 C 556 605.562, 556.532 606, 558.833 606 C 560.713 606, 561.667 605.484, 561.667 604.467 C 561.667 603.411, 561.344 603.256, 560.633 603.967 C 558.639 605.961, 556.740 605.139, 557.245 602.500 C 557.757 599.820, 557.699 599.635, 556.667 600.667 M 548.667 611.667 C 548.300 612.033, 548 613.158, 548 614.167 C 548 615.460, 548.743 616, 550.523 616 C 552.984 616, 553.006 615.939, 551.408 613.500 C 549.588 610.722, 549.602 610.732, 548.667 611.667 M 289.500 613.658 C 286.750 613.821, 272.800 614.687, 258.500 615.582 L 232.500 617.209 202.674 624.636 C 171.279 632.453, 152.205 636.543, 142.397 637.559 C 139.154 637.895, 134.803 638.807, 132.730 639.585 C 130.656 640.363, 126.381 640.927, 123.230 640.837 L 117.500 640.674 123 640 L 128.500 639.326 121 639.178 C 115.839 639.077, 113.968 639.333, 115 640 C 116.188 640.768, 115.980 640.971, 114 640.979 C 110.783 640.992, 103.646 639.020, 104.353 638.314 C 104.650 638.017, 102.779 636.703, 100.196 635.394 L 95.500 633.014 83 635.035 C 76.125 636.146, 65.393 638.002, 59.151 639.160 L 47.803 641.265 48.394 644.222 C 49.772 651.111, 52.813 656.024, 56.709 657.656 C 64.130 660.765, 72.960 659.216, 116.751 647.120 C 167.839 633.009, 223.636 624.384, 314.500 616.555 C 330.450 615.181, 345.075 613.891, 347 613.688 C 351.137 613.253, 296.793 613.224, 289.500 613.658 M 518 614 C 521.738 615.197, 541.852 615.197, 540 614 C 539.175 613.467, 533.325 613.069, 527 613.115 C 519.713 613.168, 516.416 613.493, 518 614 M 788 615 C 786.269 615.554, 787.959 615.832, 793.500 615.904 C 802.892 616.024, 811.382 617.429, 842.500 624.010 C 855.150 626.685, 870 629.340, 875.500 629.910 C 889.934 631.405, 907.695 631.700, 908.933 630.465 C 910.069 629.331, 912.289 618.956, 911.553 618.219 C 909.202 615.868, 794.611 612.883, 788 615 M 763.250 615.728 C 765.313 615.944, 768.688 615.944, 770.750 615.728 C 772.813 615.513, 771.125 615.336, 767 615.336 C 762.875 615.336, 761.188 615.513, 763.250 615.728 M 671.750 617.723 C 673.538 617.945, 676.462 617.945, 678.250 617.723 C 680.038 617.502, 678.575 617.320, 675 617.320 C 671.425 617.320, 669.962 617.502, 671.750 617.723 M 916.603 620.135 C 916.331 621.436, 915.832 624.638, 915.493 627.250 L 914.877 632 930.971 632 C 948.056 632, 952.036 631.193, 956.736 626.778 C 959.212 624.452, 959.722 622.025, 957.750 621.956 C 957.063 621.932, 953.162 621.526, 949.082 621.053 C 942.156 620.252, 941.545 620.338, 939.883 622.347 L 938.102 624.500 935.511 621.750 C 933.378 619.487, 932.064 619, 928.085 619 C 925.426 619, 921.865 618.723, 920.173 618.385 C 917.510 617.852, 917.030 618.087, 916.603 620.135 M 535.500 619.907 L 530.500 620.500 532.973 622.250 C 536.948 625.064, 544 624.190, 544 620.883 C 544 618.893, 544.024 618.896, 535.500 619.907 M 558.302 621.746 C 563.693 621.926, 572.243 621.925, 577.302 621.744 C 582.361 621.563, 577.950 621.416, 567.500 621.417 C 557.050 621.418, 552.911 621.566, 558.302 621.746" stroke="none" fill="#9b7250" fill-rule="evenodd"/><path d="M 769 41.661 C 730.405 44.325, 707.165 46.804, 681 51.049 C 625.919 59.985, 568.853 74.954, 530 90.659 C 509.190 99.071, 472.228 118.775, 467.539 123.957 C 466.522 125.081, 465.167 126, 464.528 126 C 463.888 126, 458.445 123.798, 452.433 121.106 C 425.537 109.067, 387.566 98.232, 339.931 89.005 C 325.394 86.190, 310.350 83.226, 306.500 82.419 C 290.506 79.069, 237.805 71.903, 204.500 68.551 C 138.811 61.939, 77.662 62.916, 67.126 70.747 C 59.148 76.675, 67.334 86.656, 82.500 89.493 L 88.500 90.615 76 92.944 C 69.125 94.225, 63.047 95.443, 62.493 95.650 C 61.939 95.858, 61.039 95.009, 60.493 93.764 C 59.030 90.429, 56.661 91.001, 55.372 95 L 54.243 98.500 45.872 99.258 C 41.267 99.676, 36.073 99.774, 34.328 99.478 C 32.583 99.181, 30.869 99.402, 30.519 99.969 C 30.169 100.536, 29.034 101, 27.998 101 C 26.498 101, 26.053 100.137, 25.807 96.750 C 25.556 93.269, 25.138 92.500, 23.500 92.500 C 21.830 92.500, 21.450 93.267, 21.199 97.147 C 20.965 100.766, 20.468 101.906, 18.949 102.303 C 17.877 102.583, 17 103.559, 17 104.472 C 17 106.973, 18.892 110, 20.456 110 C 21.975 110, 22.142 110.651, 24.579 126.126 C 26.229 136.605, 26.213 137.180, 23.403 167.626 C 20.953 194.166, 20.549 203.202, 20.527 232 C 20.512 250.425, 21.094 276.525, 21.820 290 C 24.388 337.677, 28.062 396.819, 29.988 421.500 C 33.748 469.688, 34.090 479.099, 33.001 504.437 C 32.432 517.672, 31.303 535.700, 30.493 544.500 C 29.682 553.300, 28.109 571.750, 26.998 585.500 C 24.012 622.426, 21.559 633.044, 14.034 641.614 C 10.937 645.142, 10.911 647.519, 13.959 648.487 C 15.503 648.977, 37.569 644.870, 41.505 643.360 C 42.555 642.957, 43.115 643.870, 43.572 646.724 C 44.613 653.235, 48.234 659.267, 52.568 661.709 C 61.161 666.550, 71.966 665.381, 105.532 655.979 C 128.759 649.473, 152.059 643.792, 169 640.504 C 185.257 637.349, 211.781 632.955, 218 632.386 C 220.475 632.159, 225.875 631.495, 230 630.910 C 234.125 630.325, 239.075 629.651, 241 629.411 C 249.252 628.384, 292.976 623.819, 298 623.459 C 301.025 623.242, 314.075 622.171, 327 621.079 C 375.414 616.986, 384.325 616.559, 422 616.530 C 448.574 616.509, 469.762 617.079, 490.401 618.368 C 506.846 619.395, 525.634 620.046, 532.151 619.813 C 543.134 619.422, 544 619.525, 544 621.227 C 544 623.769, 546.997 624.724, 548.505 622.662 C 549.583 621.187, 552.640 620.998, 575.610 620.982 C 589.850 620.972, 616.350 620.234, 634.500 619.342 C 673.167 617.441, 668.771 617.591, 736.500 615.857 C 765.650 615.111, 805.025 614.587, 824 614.694 C 856.698 614.877, 900.090 616.379, 908.248 617.610 L 911.996 618.175 911.353 622.338 C 910.439 628.255, 909.265 631, 907.647 631 C 906.876 631, 905.685 631.675, 905 632.500 C 903.249 634.610, 905.543 637.196, 908.816 636.801 C 912.437 636.363, 914.866 632.360, 915.826 625.249 C 916.290 621.810, 916.859 618.808, 917.090 618.577 C 917.321 618.345, 921.180 618.472, 925.666 618.857 C 932.637 619.456, 934.125 619.917, 935.911 622.029 L 938 624.500 939.832 622.347 C 941.761 620.080, 943.954 620.102, 960.230 622.554 C 964.127 623.141, 965.072 622.976, 965.592 621.620 C 966.832 618.388, 964.238 617.233, 954.117 616.508 C 948.720 616.122, 943.716 615.443, 942.998 614.998 C 941.924 614.335, 941.941 611.812, 943.095 600.845 L 944.500 587.500 948.174 587.194 C 954.893 586.635, 955.582 582.601, 949.456 579.680 C 945.248 577.674, 945.284 578.361, 948.006 551.957 C 956.784 466.793, 961.625 379.757, 966.496 219.500 C 967.332 192, 968.477 159.600, 969.041 147.500 C 969.604 135.400, 970.335 118.750, 970.665 110.500 C 971.128 98.918, 971.623 95.088, 972.840 93.691 C 975.083 91.118, 973.231 88.669, 968.391 87.808 C 962.311 86.726, 928.058 86.887, 905.935 88.102 C 894.899 88.708, 885.633 88.966, 885.343 88.677 C 885.054 88.387, 882.609 81.712, 879.912 73.843 L 875.007 59.537 879.969 58.419 C 885.674 57.135, 888 55.537, 888 52.903 C 888 46.328, 855.620 41.843, 806 41.545 C 788.125 41.438, 771.475 41.490, 769 41.661 M 775.500 46.685 C 746.850 47.883, 701.917 52.691, 673.911 57.553 C 660.516 59.880, 647.452 62.909, 656.973 61.482 C 700.941 54.890, 756.593 50.200, 800.500 49.386 C 832.571 48.792, 847.561 49.670, 847.381 52.131 C 847.288 53.398, 848.888 54.040, 854.547 55.008 C 863.363 56.516, 869 55.746, 869 53.034 C 869 50.902, 867.685 50.527, 855 49.039 C 833.949 46.571, 801.317 45.604, 775.500 46.685 M 774 56.610 C 770.975 56.827, 758.600 57.702, 746.500 58.554 C 701.292 61.738, 678.719 64.966, 634.500 74.571 C 602.960 81.422, 565.934 92.585, 536 104.267 C 516.269 111.968, 486.865 126.855, 485.513 129.828 C 484.923 131.127, 483.616 132, 482.263 132 C 478.952 132, 479.497 133.390, 483.570 135.332 C 487.471 137.192, 488.145 140.821, 484.462 140.134 C 480.823 139.455, 475.593 139.880, 473.445 141.029 C 470.911 142.386, 461.999 140.361, 432.470 131.721 C 394.667 120.660, 296.572 106.256, 220 100.521 C 175.229 97.169, 130.683 95.137, 121.450 96.026 C 109.187 97.207, 107.543 97.953, 105.672 103.184 C 96.795 127.995, 87.913 168.438, 82.007 210.939 C 79.428 229.496, 79.455 230.725, 82.961 254.500 C 88.909 294.827, 91.329 316.141, 99.025 396 C 107.612 485.100, 118.747 585.113, 121.090 594.184 L 122.041 597.867 129.271 594.586 C 150.253 585.062, 174.083 579.868, 212 576.554 C 236.295 574.431, 263.898 573.001, 280.604 573.001 C 289.459 573, 299.508 572.278, 307.604 571.061 C 333.175 567.215, 344.041 566.500, 376.500 566.524 C 409.447 566.548, 421.332 567.271, 460 571.601 C 501.371 576.233, 531.811 582.402, 553.641 590.578 L 563.012 594.088 567.569 590.952 C 608.799 562.585, 741.604 542.486, 825 551.992 C 846.012 554.387, 867.887 558.274, 895.731 564.561 C 904.108 566.452, 911.421 568, 911.981 568 C 913.816 568, 913.054 558.214, 910.051 543.223 C 908.428 535.126, 905.040 510.950, 902.520 489.500 C 900.001 468.050, 896.171 436.325, 894.009 419 C 887.401 366.043, 886.454 356.285, 881.488 290 C 879.326 261.150, 875.991 235.254, 870.024 201 C 864.474 169.135, 862.581 155.533, 861.045 136.500 C 859.454 116.783, 858.147 89.781, 858.712 88.309 C 859.340 86.671, 862.209 86.609, 863.800 88.200 C 864.460 88.860, 864.998 88.972, 864.995 88.450 C 864.985 86.710, 860.026 61.693, 859.609 61.275 C 859.383 61.049, 840.816 62.943, 818.349 65.483 C 717.647 76.870, 673.555 84.495, 598.500 103.505 C 565.097 111.965, 529.300 121.914, 516.500 126.293 C 512.650 127.611, 508.938 128.496, 508.250 128.261 C 505.803 127.424, 507.058 125.002, 510.750 123.435 C 517.692 120.489, 565.608 107.161, 602.194 98.001 C 673.214 80.219, 723.553 71.577, 815.741 61.340 C 832.271 59.504, 840.236 58.261, 838.821 57.738 C 836.506 56.882, 783.152 55.953, 774 56.610 M 869.562 60.899 C 869.161 61.549, 867.970 61.808, 866.916 61.473 C 864.467 60.696, 864.470 61.734, 866.946 74.500 C 868.013 80, 870.044 91.925, 871.460 101 C 872.876 110.075, 875.121 122.225, 876.449 128 C 881.194 148.636, 885.430 176.195, 888.975 209.500 C 890.108 220.146, 899.813 284.815, 900.530 286.500 C 901.176 288.018, 900.049 225.831, 898.917 197.500 C 897.292 156.827, 893.889 131.367, 887.089 109 C 881.340 90.092, 870.280 59.738, 869.562 60.899 M 97.262 71.073 C 86.506 71.759, 77.375 73.034, 71.750 74.636 C 66.820 76.041, 72.564 80.752, 82.500 83.455 C 85.800 84.353, 89.274 85.513, 90.221 86.034 C 91.167 86.555, 95.082 87.273, 98.921 87.629 L 105.900 88.278 107.334 84.889 C 108.124 83.025, 109.622 79.250, 110.664 76.500 C 112.057 72.825, 113.148 71.415, 114.784 71.180 C 118.335 70.669, 118.429 73.408, 115.089 79.982 C 113.390 83.325, 112 86.329, 112 86.659 C 112 86.988, 114.277 86.956, 117.060 86.586 C 141.687 83.320, 209.447 84.524, 254 89.020 C 259.225 89.547, 270.700 90.446, 279.500 91.017 C 316.081 93.392, 343.476 96.968, 379.857 104.118 C 391.053 106.319, 400.405 107.928, 400.639 107.694 C 401.262 107.072, 366.260 98.673, 346 94.585 C 311.470 87.617, 265.943 80.691, 234 77.548 C 165.189 70.778, 128.878 69.058, 97.262 71.073 M 902.176 93.058 C 894.848 93.474, 888.642 94.025, 888.385 94.282 C 888.128 94.539, 889.464 99.868, 891.355 106.125 C 901.342 139.171, 903.633 165.639, 905.019 264 C 905.763 316.795, 906.297 332.100, 907.960 348.335 C 912.934 396.892, 916.885 481.147, 917.071 542.630 L 917.153 569.759 923.327 570.919 C 926.722 571.557, 931.524 572.475, 933.999 572.958 C 936.473 573.441, 938.723 573.611, 938.999 573.336 C 939.839 572.498, 939.566 526.822, 938.171 435 C 937.440 386.875, 936.450 304.975, 935.971 253 C 935.107 159.307, 934.787 150.353, 930.943 112.173 L 929.701 99.845 925.101 100.173 C 921.014 100.463, 920.465 100.256, 920.190 98.320 C 919.827 95.772, 920.042 95.732, 943.488 93.979 C 951.731 93.362, 958.669 92.665, 958.904 92.429 C 959.584 91.749, 916.876 92.223, 902.176 93.058 M 205.537 94.946 C 255.080 98.573, 282.949 101.546, 328.841 108.102 C 344.429 110.329, 357.365 111.968, 357.588 111.745 C 358.248 111.085, 324.759 104.187, 308 101.531 C 264.307 94.607, 254.762 93.761, 216.500 93.428 L 180.500 93.113 205.537 94.946 M 961.500 97.163 C 959.300 97.551, 952.853 98.192, 947.173 98.587 C 937.313 99.272, 936.873 99.399, 937.446 101.402 C 947.852 137.817, 952.748 185.897, 955.023 274 C 955.570 295.175, 955.827 328.025, 955.595 347 C 955.362 365.975, 955.352 379.925, 955.571 378 C 956.217 372.333, 959.856 276.508, 961.988 209 C 963.074 174.625, 964.461 137.500, 965.069 126.500 C 965.678 115.500, 966.024 104.240, 965.838 101.478 L 965.500 96.456 961.500 97.163 M 81.190 98.735 C 76.521 99.153, 73.287 101.537, 73.797 104.184 C 74.008 105.281, 73.333 105.957, 71.808 106.173 C 64.006 107.279, 62.429 146.975, 68.018 201.591 C 71.522 235.824, 72.162 241.479, 72.709 243 C 73.006 243.825, 74.535 234.436, 76.107 222.135 C 81.337 181.213, 87.993 147.102, 96.602 117.094 C 99.033 108.621, 100.789 101.455, 100.503 101.170 C 99.687 100.353, 87.171 105.738, 79.825 110.067 C 72.917 114.138, 69 115.044, 69 112.572 C 69 110.950, 77.803 105.355, 87.180 101.016 L 93.500 98.092 89.500 98.221 C 87.300 98.291, 83.560 98.523, 81.190 98.735 M 863.467 108 C 865.660 140.133, 866.252 146.960, 868.023 160.500 C 869.102 168.750, 872.028 186.975, 874.524 201 C 881.651 241.033, 883.409 256.495, 888.512 324 C 889.364 335.275, 890.970 353.725, 892.081 365 C 895.704 401.769, 895.805 394.046, 892.531 330.458 C 891.173 304.081, 889.815 278.900, 889.515 274.500 C 885.669 218.199, 886.306 223.710, 876.426 161.202 C 870.704 125.001, 865.779 101.426, 863.461 99.135 C 863.107 98.786, 863.110 102.775, 863.467 108 M 358 105.967 C 386.568 111.843, 400.292 115.135, 428.913 122.976 C 441.006 126.289, 451.484 128.985, 452.200 128.967 C 454.620 128.905, 448.977 125.135, 443.209 122.961 C 434.256 119.585, 389.735 110.033, 354.843 104 C 329.823 99.675, 331.014 100.417, 358 105.967 M 60.527 104.250 C 60.301 104.938, 58.958 118.775, 57.543 135 C 56.128 151.225, 54.536 169.225, 54.006 175 C 50.531 212.866, 48.874 266.692, 50.058 303.250 C 52.411 375.904, 60.648 430.161, 78.028 487.493 C 83.242 504.695, 94.946 537.387, 95.641 536.692 C 95.862 536.471, 94.451 529.812, 92.505 521.895 C 84.362 488.764, 76.029 439.958, 72.548 405 C 68.867 368.033, 67.960 325.647, 70.066 289.032 C 71.124 270.635, 71.103 270.235, 67.106 234 C 61.011 178.734, 60.612 173.429, 60.554 147 C 60.499 122.082, 61.507 111.788, 64.583 105.840 C 66.011 103.078, 65.981 103, 63.494 103 C 62.088 103, 60.753 103.563, 60.527 104.250 M 37.694 104.732 C 35.601 104.949, 33.698 105.661, 33.465 106.314 C 33.233 106.966, 32.601 113.890, 32.062 121.701 C 31.294 132.838, 31.394 138.417, 32.528 147.560 C 33.324 153.972, 35.347 176.607, 37.024 197.859 C 38.701 219.112, 41.130 247.525, 42.421 261 L 44.768 285.500 44.891 266.500 C 45.099 234.489, 48.705 175.307, 53.512 125 C 55.723 101.863, 56.255 103.969, 48.250 104.168 C 44.538 104.261, 39.787 104.514, 37.694 104.732 M 501.310 113.902 C 491.371 118.798, 482.934 123.298, 482.561 123.902 C 481.511 125.600, 482.170 125.326, 491.128 120.341 C 495.733 117.778, 504.450 113.294, 510.500 110.376 C 516.550 107.458, 521.023 105.055, 520.440 105.035 C 519.857 105.016, 511.248 109.006, 501.310 113.902 M 937.140 123 C 937.104 123.825, 937.752 132.600, 938.579 142.500 C 939.684 155.727, 940.325 187.147, 940.996 261 C 942.209 394.450, 943.857 514.190, 944.489 514.823 C 944.770 515.104, 945.004 514.021, 945.009 512.417 C 945.014 510.813, 945.666 499.600, 946.458 487.500 C 949.851 435.667, 951.680 324.559, 950.063 268.500 C 948.412 211.246, 945.551 171.503, 940.922 141.500 C 938.873 128.224, 937.256 120.314, 937.140 123 M 476 165.847 C 476 167.963, 477.564 181.351, 479.476 195.597 C 483.215 223.463, 485.911 248.749, 491.510 308.500 C 499.411 392.817, 499.961 397, 503.138 397 C 505.381 397, 505.376 397.162, 503.498 384.015 C 502.672 378.232, 499.966 351.675, 497.485 325 C 490.622 251.204, 488.194 227.818, 484.508 200 C 482.649 185.975, 480.817 171.688, 480.435 168.250 C 479.859 163.058, 479.425 162, 477.871 162 C 476.367 162, 476 162.755, 476 165.847 M 28.711 167 C 28.353 168.375, 27.317 178.950, 26.407 190.500 C 24.321 217, 24.954 265.625, 27.924 307 C 29.049 322.675, 30.661 347.200, 31.505 361.500 C 32.350 375.800, 34.258 402.575, 35.745 421 C 39.039 461.799, 39.395 509.581, 36.624 539 C 35.718 548.625, 34.061 567.975, 32.942 582 C 30.055 618.190, 27.959 630.063, 22.918 638.794 L 21.016 642.088 24.758 641.391 C 26.816 641.008, 31.650 639.966, 35.500 639.075 L 42.500 637.456 42.732 627.978 C 42.859 622.765, 43.707 603.875, 44.615 586 C 47.253 534.095, 46.468 416.836, 42.978 341.500 C 41.699 313.878, 39.641 285.011, 36.527 251 C 35.193 236.425, 33.165 211.900, 32.020 196.500 C 29.554 163.316, 29.588 163.625, 28.711 167 M 76.102 267.141 C 75.973 276.785, 87.724 389.609, 88.751 388.583 C 89.333 388, 86.168 345.598, 84.026 325.281 C 82.994 315.502, 81.189 298.050, 80.013 286.500 C 77.500 261.821, 76.256 255.658, 76.102 267.141 M 894.551 285 C 894.830 289.125, 896.171 314.775, 897.531 342 C 901.169 414.819, 904.009 456.545, 908.080 496.988 C 909.215 508.256, 910.335 517.669, 910.571 517.905 C 911.557 518.890, 910.632 498.604, 906.064 419 C 904.975 400.025, 903.606 373.700, 903.021 360.500 C 901.802 332.951, 900.879 322.576, 897.415 297.500 C 894.653 277.503, 893.791 273.739, 894.551 285 M 73.728 309.500 C 70.850 337.716, 75.410 404.947, 83.596 455 C 88.106 482.573, 99.467 535.867, 100.595 534.739 C 100.810 534.523, 100.110 528.082, 99.040 520.424 C 96.936 505.374, 94.592 481.081, 93.017 458 C 92.473 450.025, 90.687 434.725, 89.049 424 C 85.176 398.638, 81.778 371.401, 78.007 335.500 C 76.331 319.550, 74.844 305.600, 74.701 304.500 C 74.559 303.400, 74.121 305.650, 73.728 309.500 M 45.154 318.500 C 45.077 324.550, 45.919 339.175, 47.024 351 C 48.129 362.825, 49.467 387.575, 49.997 406 C 51.457 456.775, 51.231 548.708, 49.560 583.509 C 48.768 600.004, 47.981 618.450, 47.810 624.500 L 47.500 635.500 51 635.249 C 52.925 635.112, 63.274 633.486, 73.998 631.637 L 93.497 628.275 94.875 623.395 C 95.939 619.627, 97.664 617.146, 102.442 612.507 C 105.846 609.203, 110.502 605.375, 112.789 604 C 115.075 602.625, 116.958 600.789, 116.973 599.919 C 116.988 599.050, 115.876 596.125, 114.503 593.419 C 113.130 590.714, 111.266 586.250, 110.361 583.500 C 109.456 580.750, 105.670 571.750, 101.948 563.500 C 67.612 487.388, 51.548 418.017, 46.142 322.500 L 45.293 307.500 45.154 318.500 M 94.120 397 C 93.764 405.995, 97.452 450.502, 99.506 462 C 101.591 473.670, 101.849 474.483, 101.411 468 C 100.632 456.490, 94.233 394.166, 94.120 397 M 519.787 461.139 C 519.559 461.824, 520.574 467.361, 522.045 473.443 C 523.515 479.524, 525.995 492.761, 527.556 502.857 C 530.315 520.693, 531.452 523.948, 534.030 521.370 C 535.090 520.310, 528.975 482.125, 525.685 469.261 C 524.130 463.184, 522.953 460.422, 521.825 460.205 C 520.933 460.033, 520.016 460.453, 519.787 461.139 M 104.488 526.500 C 105.388 535.386, 109.255 559.078, 109.728 558.605 C 109.981 558.352, 108.999 550.351, 107.546 540.823 C 104.904 523.498, 103.535 517.086, 104.488 526.500 M 748 554.671 C 745.525 554.848, 737.425 555.456, 730 556.023 C 671.903 560.455, 614.286 572.790, 583.456 587.394 C 561.655 597.721, 563.226 599.802, 588.136 593.598 C 634.924 581.944, 682.673 574.889, 735 571.899 C 775.956 569.558, 846.500 572.337, 907.250 578.684 L 913 579.285 913 576.225 L 913 573.166 899.750 570.015 C 868.995 562.702, 835.825 557.130, 810.500 555.020 C 799.598 554.112, 758.995 553.885, 748 554.671 M 357 570.527 C 355.625 570.735, 349.100 571.208, 342.500 571.577 C 328.043 572.386, 329.762 573.455, 347 574.377 C 360.646 575.106, 403.588 579.666, 406 580.642 C 406.825 580.975, 420.100 581.611, 435.500 582.054 C 450.900 582.497, 470.025 583.587, 478 584.476 C 506.567 587.662, 533.999 594.617, 545.637 601.625 C 550.608 604.618, 552.501 605.159, 559.449 605.572 C 565.531 605.934, 566.922 605.797, 565.136 605.015 C 563.344 604.231, 562.909 603.438, 563.336 601.740 C 563.841 599.737, 563.685 599.791, 561.867 602.250 C 559.338 605.670, 556.556 605.971, 557.255 602.750 C 557.523 601.513, 558.054 599.765, 558.433 598.867 C 558.995 597.539, 557.477 596.636, 550.312 594.034 C 515.981 581.569, 445.014 571.694, 381.500 570.545 C 369.400 570.326, 358.375 570.318, 357 570.527 M 283 579.559 C 238.919 587.931, 193.662 602.558, 152.500 621.735 C 132.622 630.996, 128.752 632.300, 125.519 630.827 C 122.430 629.419, 120.210 623.828, 118.810 613.928 L 117.704 606.108 113.602 608.958 C 105.281 614.740, 99.011 622.350, 99.004 626.677 C 98.995 631.650, 108.031 635.015, 121.299 634.982 C 137.669 634.940, 156.932 631.215, 212.500 617.344 C 291.144 597.714, 344.493 587.453, 384 584.360 C 392.471 583.697, 393.044 583.535, 389.293 582.867 C 382.234 581.612, 353.501 579.039, 335 578.006 C 308.420 576.522, 297.227 576.856, 283 579.559 M 917.543 577.931 C 916.606 579.447, 918.015 579.780, 928.002 580.406 L 937.500 581 932.500 579.078 C 927.198 577.039, 918.506 576.373, 917.543 577.931 M 241.500 578.684 C 188.885 582.083, 161.031 586.721, 137.908 595.931 C 123.430 601.698, 124.197 600.997, 126.259 606.561 C 128.170 611.718, 127.764 613.433, 124.812 612.661 C 123.019 612.192, 122.909 612.509, 123.536 616.324 C 124.577 622.646, 126.661 627, 128.646 627 C 129.608 627, 137.044 623.858, 145.172 620.017 C 180.843 603.161, 212.491 591.825, 251.500 581.933 L 266.500 578.129 256.500 578.245 C 251 578.308, 244.250 578.506, 241.500 578.684 M 731 579.587 C 728.525 579.782, 717.725 580.452, 707 581.075 C 696.275 581.698, 684.575 582.521, 681 582.903 L 674.500 583.599 683 584.376 C 687.675 584.803, 700.050 586.070, 710.500 587.191 C 746.404 591.043, 788.991 590.748, 829.500 586.365 C 850.565 584.086, 850.511 583.911, 828 581.520 C 815.995 580.244, 801.147 579.694, 773.500 579.500 C 752.600 579.353, 733.475 579.392, 731 579.587 M 856 580.051 C 858.475 580.491, 862.750 580.833, 865.500 580.811 L 870.500 580.770 866.500 579.943 C 864.300 579.488, 860.025 579.146, 857 579.183 L 851.500 579.250 856 580.051 M 884.750 582.654 C 883.237 582.917, 882.008 583.440, 882.018 583.816 C 882.032 584.363, 896.045 588.207, 910.750 591.699 C 912.797 592.185, 913 591.873, 913 588.244 C 913 584.406, 912.859 584.234, 909.250 583.669 C 903.479 582.767, 887.827 582.119, 884.750 582.654 M 917.661 587.133 C 916.275 592.311, 916.909 593.977, 921.500 597.213 C 923.975 598.958, 926 600.987, 926 601.724 C 926 603.889, 923.177 604.346, 920.527 602.610 C 919.176 601.724, 917.830 601, 917.535 601 C 917.241 601, 917 603.680, 917 606.955 C 917 612.905, 917.002 612.910, 920.250 613.403 C 924.169 613.997, 934.973 614.927, 935.067 614.678 C 935.545 613.419, 937.387 586.739, 937.012 586.508 C 936.729 586.332, 932.401 585.869, 927.396 585.477 C 918.403 584.774, 918.287 584.793, 917.661 587.133 M 389.500 588.103 C 362.009 590.645, 329.367 595.840, 291.500 603.698 C 262.478 609.720, 261.449 610.052, 273.500 609.498 C 279 609.245, 290.708 608.743, 299.518 608.382 C 308.327 608.021, 352.427 608.287, 397.518 608.974 C 459.263 609.915, 485.795 609.947, 505.001 609.104 C 527.123 608.132, 531.231 608.185, 536.001 609.505 C 539.025 610.341, 542.962 611.304, 544.750 611.644 C 547.037 612.079, 548 612.816, 548 614.131 C 548 615.471, 548.727 616, 550.568 616 L 553.136 616 550.892 612.750 C 549.658 610.962, 548.596 609.406, 548.532 609.292 C 548.469 609.177, 541.686 607.967, 533.459 606.602 C 525.231 605.238, 509.725 602.508, 499 600.536 C 488.275 598.564, 466.139 594.712, 449.810 591.975 C 418.371 586.707, 410.238 586.185, 389.500 588.103 M 454.500 588.141 C 485.945 593.911, 534.274 602.059, 534.675 601.658 C 535.626 600.708, 518.758 595.945, 504.080 593.019 C 489.160 590.044, 462.728 586.912, 454.241 587.112 L 449.500 587.224 454.500 588.141 M 846.500 589.054 C 819.640 593.147, 800.561 594.429, 766 594.464 C 738.002 594.493, 729.051 594.129, 711.500 592.252 C 661.202 586.870, 645.281 586.640, 624.072 590.987 C 616.058 592.630, 601.893 596.005, 592.596 598.487 C 583.299 600.969, 575.536 603, 575.346 603 C 575.156 603, 575 603.675, 575 604.500 C 575 605.325, 574.100 606.900, 573 608 C 571.344 609.656, 569.667 610, 563.250 610 L 555.500 610 555.500 613.155 L 555.500 616.310 583.500 615.666 C 598.900 615.312, 626.800 614.353, 645.500 613.535 C 750.812 608.931, 867.224 608.514, 906.294 612.600 L 912.088 613.207 911.794 605.387 L 911.500 597.568 902.511 594.782 C 889.911 590.877, 870.278 586.979, 863.885 587.113 C 860.923 587.175, 853.100 588.048, 846.500 589.054 M 289.500 613.658 C 286.750 613.821, 272.800 614.687, 258.500 615.582 L 232.500 617.209 202.674 624.636 C 154.087 636.734, 137.611 639.493, 117.771 638.854 C 107.915 638.537, 105.792 638.145, 100.864 635.728 L 95.227 632.964 74.864 636.442 C 45.198 641.508, 47.704 640.770, 48.397 644.234 C 49.772 651.112, 52.815 656.025, 56.709 657.656 C 64.130 660.765, 72.960 659.216, 116.751 647.120 C 167.839 633.009, 223.636 624.384, 314.500 616.555 C 330.450 615.181, 345.075 613.891, 347 613.688 C 351.137 613.253, 296.793 613.224, 289.500 613.658 M 518 614 C 521.738 615.197, 541.852 615.197, 540 614 C 539.175 613.467, 533.325 613.069, 527 613.115 C 519.713 613.168, 516.416 613.493, 518 614" stroke="none" fill="#0e0c0b" fill-rule="evenodd"/><path d="M 756.500 48.131 C 731.669 49.882, 682.353 55.686, 683.401 56.734 C 683.645 56.978, 690.517 56.464, 698.672 55.591 C 735.006 51.701, 767.300 49.780, 804.732 49.283 C 825.760 49.003, 844.098 49.059, 845.482 49.406 C 846.975 49.781, 848 50.752, 848 51.791 C 848 55.414, 867.047 56.926, 868.396 53.411 C 869.103 51.568, 868.572 51.360, 860 50.110 C 839.087 47.062, 786.035 46.048, 756.500 48.131 M 781.500 56.621 C 778.750 56.826, 765.925 57.691, 753 58.543 C 702.070 61.898, 679.534 65.073, 632.420 75.526 C 599.694 82.788, 564.257 93.516, 535 105.020 C 516.474 112.304, 489.155 126.274, 485.979 130.087 C 484.228 132.190, 482.932 132.911, 481.729 132.450 C 478.430 131.184, 480.020 132.970, 484 135 C 488.115 137.099, 489.193 139.605, 486.436 140.663 C 485.576 140.993, 483.792 140.771, 482.472 140.169 C 480.805 139.409, 479.873 139.396, 479.423 140.125 C 479.066 140.702, 477.926 140.952, 476.888 140.681 C 475.851 140.410, 474.750 140.596, 474.442 141.094 C 472.971 143.475, 466.719 142.170, 435.500 132.967 C 415.256 126.999, 400.728 124.045, 360 117.614 C 291.718 106.832, 244.098 101.890, 165.500 97.431 C 136.119 95.764, 117.393 95.922, 110.967 97.892 C 107.587 98.927, 107.296 99.399, 104.258 108.737 C 96.191 133.537, 88.079 171.095, 82.944 207.428 L 79.803 229.658 84.347 261.579 C 89.654 298.862, 92.920 328.225, 100.523 407 C 109.701 502.112, 120.649 597, 122.444 597 C 122.560 597, 126.864 595.174, 132.009 592.943 C 159.795 580.892, 196.433 575.474, 267 572.983 C 283.775 572.390, 302.225 571.257, 308 570.465 C 353.490 564.222, 392.117 564.116, 450 570.075 C 499.128 575.133, 533.913 582.066, 557.226 591.445 L 562.953 593.748 566.226 591.293 C 575.105 584.632, 595.256 576.180, 616.717 570.115 C 677.496 552.937, 766.473 544.942, 824 551.487 C 849.344 554.371, 893.149 562.571, 910.350 567.652 C 912.079 568.163, 912.169 567.590, 911.730 558.849 C 911.472 553.707, 910.309 545.225, 909.145 540 C 907.982 534.775, 905.208 515.200, 902.981 496.500 C 900.754 477.800, 896.940 446.525, 894.506 427 C 888.062 375.298, 886.395 359.013, 882.996 314.500 C 878.502 255.673, 877.033 243.755, 867.150 186 C 864.939 173.075, 862.436 155.525, 861.587 147 C 859.542 126.438, 857.553 89.607, 858.373 87.471 C 858.824 86.295, 859.790 85.918, 861.512 86.247 C 862.881 86.509, 864.008 86.448, 864.018 86.111 C 864.029 85.775, 863.037 79.984, 861.816 73.243 L 859.594 60.985 856.547 61.499 C 854.871 61.781, 835.275 64.058, 813 66.559 C 736.876 75.105, 697.852 81.104, 650 91.619 C 611.397 100.101, 545.928 117.203, 519.637 125.674 C 511.652 128.246, 508.478 128.878, 507.659 128.059 C 505.940 126.340, 508.034 123.867, 512.558 122.270 C 531.485 115.590, 614.273 93.878, 650.500 86.093 C 699.896 75.479, 767.710 65.420, 831 59.319 C 838.363 58.609, 838.418 58.584, 834 57.917 C 828.521 57.090, 788.454 56.101, 781.500 56.621 M 876.542 62.250 C 877.406 66.251, 883.823 84.178, 884.666 84.944 C 885.003 85.250, 884.998 82.350, 884.654 78.500 C 884.221 73.654, 883.082 69.577, 880.952 65.250 C 877.601 58.443, 875.397 56.944, 876.542 62.250 M 865 62.185 C 865 62.561, 865.699 66.161, 866.554 70.185 C 867.408 74.208, 869.624 86.950, 871.477 98.500 C 873.330 110.050, 875.981 124.450, 877.369 130.500 C 881.741 149.560, 884.638 168.100, 888.540 202 C 889.902 213.825, 893.034 236.100, 895.502 251.500 L 899.988 279.500 899.503 239.500 C 898.795 181.036, 897.368 161.113, 891.879 133 C 887.849 112.366, 886.137 106.198, 878.624 85.251 C 875.122 75.488, 871.963 66.150, 871.604 64.500 C 871.056 61.985, 870.470 61.500, 867.975 61.500 C 866.339 61.500, 865 61.808, 865 62.185 M 174.500 76.988 C 125.151 79.504, 115.495 80.118, 114.965 80.775 C 114.643 81.174, 113.837 82.775, 113.174 84.333 C 111.995 87.101, 112.031 87.153, 114.734 86.596 C 120.461 85.416, 147.138 84.020, 164 84.017 C 184.123 84.014, 230.531 86.341, 252.500 88.454 C 260.750 89.248, 275.150 90.400, 284.500 91.014 C 316.206 93.096, 340.654 96.207, 371.368 102.069 C 380.095 103.735, 387.403 104.930, 387.608 104.725 C 388.836 103.497, 330.948 91.655, 299 86.599 C 239.501 77.183, 212.130 75.070, 174.500 76.988 M 101 81.644 C 89.371 85.410, 89.154 86.285, 99.555 87.464 C 105.408 88.128, 105.650 88.064, 106.805 85.529 C 107.462 84.086, 108 82.477, 108 81.953 C 108 80.972, 103.664 80.781, 101 81.644 M 316.054 83.381 C 316.358 83.689, 328.126 86.208, 342.204 88.980 C 388.901 98.175, 423.009 107.889, 450 119.680 C 465.337 126.380, 466.408 126.734, 465.811 124.902 C 465.311 123.367, 448.589 115.951, 428.998 108.575 C 403.094 98.822, 369.501 90.593, 337 86.037 C 329.025 84.919, 320.925 83.738, 319 83.413 C 317.075 83.088, 315.749 83.073, 316.054 83.381 M 199.500 94.034 C 205.550 94.540, 219.500 95.659, 230.500 96.521 C 264.702 99.199, 336.638 107.805, 349 110.697 C 350.375 111.018, 351.254 111.009, 350.952 110.676 C 350.035 109.662, 323.490 104.311, 306 101.613 C 264.555 95.222, 250.968 93.959, 219 93.526 C 195.619 93.209, 191.067 93.328, 199.500 94.034 M 83.925 98.907 C 77.202 99.513, 74 101.303, 74 104.453 C 74 105.331, 72.919 106.460, 71.598 106.963 C 70.158 107.510, 68.770 109.203, 68.133 111.188 C 65.057 120.772, 64.079 149.813, 65.998 174.605 C 67.741 197.118, 72.245 239.469, 72.985 240.299 C 73.377 240.739, 73.980 237.768, 74.324 233.698 C 77.225 199.382, 90.735 130.812, 99.465 106.094 C 100.321 103.671, 100.867 101.534, 100.679 101.346 C 100.013 100.679, 87.548 106.217, 79.736 110.650 C 72.088 114.989, 69 115.575, 69 112.686 C 69 110.491, 71.961 108.366, 82.475 103.013 C 87.890 100.256, 91.911 98.071, 91.410 98.157 C 90.910 98.244, 87.541 98.581, 83.925 98.907 M 864.545 115.500 C 865.402 137.203, 867.895 159.169, 872.657 187 C 881.763 240.211, 883.824 256.342, 886.967 299 C 889.334 331.114, 892.950 373.061, 893.476 374.500 C 894.946 378.518, 889.849 278.877, 886.418 236.500 C 884.425 211.901, 870.075 120.589, 866.538 110 L 864.032 102.500 864.545 115.500 M 371.500 108.173 C 407.865 116.958, 419.037 119.767, 432.825 123.592 C 441.804 126.083, 449.792 128.367, 450.575 128.667 C 451.359 128.968, 452 128.756, 452 128.196 C 452 126.556, 444.221 123.265, 434 120.582 C 423.792 117.902, 370.626 106.932, 368.677 107.103 C 368.029 107.160, 369.300 107.642, 371.500 108.173 M 58.256 148.500 C 52.326 187.255, 50.628 214.830, 50.561 273.500 C 50.508 319.858, 51.156 335.033, 54.575 367.500 C 59.592 415.146, 68.312 456.535, 82.382 499.500 C 88.313 517.610, 93.849 532.584, 93.958 530.814 C 93.981 530.436, 92.687 524.586, 91.081 517.814 C 80.930 474.988, 73.212 424.550, 69.917 379.500 C 68.552 360.837, 68.506 303.105, 69.841 285 C 70.670 273.771, 70.426 269.399, 67.448 242 C 61.995 191.848, 60.810 178.406, 60.130 159 L 59.481 140.500 58.256 148.500 M 476.130 162.343 C 474.950 163.766, 475.561 169.937, 480.523 206.692 C 483.153 226.172, 486.321 257.106, 493.509 333.492 C 499.070 392.583, 499.907 398, 503.476 398 C 505.857 398, 505.999 396.571, 504.484 387.887 C 503.678 383.273, 500.760 355.423, 497.998 325.999 C 490.665 247.869, 488.421 226.421, 484.510 197.078 C 482.580 182.591, 481 169.087, 481 167.069 C 481 161.973, 478.473 159.520, 476.130 162.343 M 76.120 267.422 C 76.007 271.103, 85.569 364.757, 86.389 368 C 87.346 371.788, 86.859 358.821, 85.502 344.411 C 82.779 315.493, 77.983 271.567, 77.104 267.500 L 76.240 263.500 76.120 267.422 M 906.596 311.500 C 906.859 326.350, 907.713 343.225, 908.492 349 L 909.910 359.500 909.366 338.500 C 909.067 326.950, 908.214 310.075, 907.469 301 L 906.116 284.500 906.596 311.500 M 895.569 295 C 895.821 299.675, 896.700 317.450, 897.522 334.500 C 900.525 396.786, 903.927 448.927, 907.602 489 C 910.915 525.118, 910.650 504.773, 907.003 443 C 905.947 425.125, 904.390 396.100, 903.541 378.500 C 901.477 335.691, 900.266 320.433, 897.466 302 C 895.408 288.452, 895.169 287.570, 895.569 295 M 74.499 343.500 C 74.705 363.850, 75.345 385.450, 75.922 391.500 C 78.910 422.852, 83.867 457.148, 89.508 485.500 C 93.345 504.792, 98.255 526.078, 98.753 525.581 C 98.993 525.341, 98.485 519.599, 97.625 512.822 C 96.206 501.642, 94.842 486.792, 92.087 452.500 C 91.557 445.900, 89.310 428.125, 87.095 413 C 84.880 397.875, 81.484 371.100, 79.549 353.500 C 73.924 302.330, 74.087 302.653, 74.499 343.500 M 96.633 433 C 96.926 440.425, 97.753 449.650, 98.471 453.500 C 100.398 463.835, 100.185 456.487, 97.978 436.500 L 96.101 419.500 96.633 433 M 519.504 460.993 C 519.167 461.539, 520.035 466.602, 521.435 472.243 C 522.834 477.884, 525.324 491.190, 526.968 501.812 C 528.613 512.433, 530.219 521.546, 530.538 522.062 C 531.410 523.472, 533.990 523.190, 534.593 521.619 C 535.140 520.192, 531.057 492.244, 528.366 479 C 525.516 464.971, 523.823 460, 521.895 460 C 520.918 460, 519.842 460.447, 519.504 460.993 M 80.587 516 C 81.450 524.467, 84.636 542.936, 88.090 559.503 C 90.830 572.644, 91.269 576.975, 91.638 594.500 C 92.103 616.554, 92.651 623, 94.061 623 C 94.578 623, 95 622.351, 95 621.557 C 95 619.397, 105.217 608.783, 111.388 604.533 C 116.528 600.992, 116.760 600.649, 115.937 597.779 C 115.460 596.115, 114.411 593.749, 113.606 592.521 C 112.801 591.292, 111.259 587.635, 110.180 584.394 C 109.101 581.152, 104.361 569.844, 99.646 559.264 C 94.932 548.684, 88.867 534.059, 86.170 526.764 C 83.472 519.469, 80.986 512.825, 80.645 512 C 80.304 511.175, 80.278 512.975, 80.587 516 M 748 555.036 C 680.171 559.219, 617.914 571.545, 584.386 587.427 C 573.997 592.348, 568.712 595.725, 569.473 596.956 C 569.746 597.398, 576.839 596.006, 585.235 593.862 C 623.605 584.065, 663.628 577.461, 713 572.780 C 731.312 571.044, 818.351 571.056, 842.500 572.799 C 865.930 574.489, 904.604 577.842, 908.750 578.542 C 911.825 579.061, 912 578.927, 912 576.045 C 912 574.370, 911.786 573, 911.524 573 C 911.261 573, 902.149 570.992, 891.274 568.538 C 867.067 563.075, 841.232 558.600, 821.983 556.535 C 803.926 554.599, 767.169 553.854, 748 555.036 M 917.015 561.691 C 917.033 567.270, 918.389 570.446, 919.287 567.012 C 919.976 564.377, 919.053 558.151, 917.865 557.417 C 917.389 557.123, 917.007 559.046, 917.015 561.691 M 341.500 571.946 L 334.500 572.539 341 573.251 C 344.575 573.643, 355.600 574.671, 365.500 575.536 C 375.400 576.401, 389.800 578.026, 397.500 579.148 C 407.144 580.552, 420.523 581.446, 440.500 582.021 C 456.450 582.480, 475.125 583.579, 482 584.462 C 512.722 588.412, 539.661 595.934, 548.885 603.137 C 552.111 605.657, 556 605.614, 556 603.059 C 556 601.991, 556.450 600.840, 557 600.500 C 560.063 598.607, 557.228 596.859, 544.250 592.640 C 514.813 583.068, 475.138 576.697, 419 572.526 C 398.937 571.036, 356.039 570.715, 341.500 571.946 M 249 578.678 C 189.448 582.019, 156.673 587.574, 133.786 598.208 C 128.918 600.470, 125.149 602.809, 125.405 603.409 C 127.760 608.931, 128.296 612.199, 126.980 613.013 C 126.218 613.483, 125.237 613.646, 124.798 613.375 C 123.691 612.691, 123.810 616.775, 125.023 621.142 C 126.905 627.919, 127.542 627.904, 142.738 620.710 C 178.669 603.700, 209.484 592.435, 246 582.961 C 264.923 578.051, 265.117 577.774, 249 578.678 M 278 580.918 C 227.157 591.779, 184.026 606.419, 141.073 627.396 C 130.393 632.611, 126.399 633.118, 123.157 629.667 C 121.013 627.385, 118.054 616.529, 118.017 610.809 C 118.008 609.329, 117.649 607.901, 117.220 607.636 C 115.773 606.742, 103.521 617.551, 101.180 621.785 C 98.338 626.927, 98.925 629.262, 103.622 631.491 C 117.287 637.975, 142.374 634.677, 210.529 617.433 C 282.461 599.234, 328.247 590.103, 372.500 585.129 C 390.628 583.092, 390.434 582.970, 365 580.431 C 356.475 579.580, 336.450 578.692, 320.500 578.459 C 291.559 578.035, 291.473 578.040, 278 580.918 M 389.500 588.615 C 381.250 589.375, 370 590.584, 364.500 591.303 L 354.500 592.609 378.500 593.341 C 391.700 593.743, 419.307 594.980, 439.850 596.090 C 460.392 597.200, 477.942 597.964, 478.850 597.788 C 482.081 597.160, 417.464 586.995, 411 587.114 C 407.425 587.180, 397.750 587.855, 389.500 588.615 M 462.500 588.977 C 470.818 590.904, 530.266 601.068, 530.697 600.636 C 531.892 599.442, 504.196 592.924, 488 590.588 C 475.273 588.753, 456.381 587.559, 462.500 588.977 M 497 601.398 C 499.475 602.154, 503.173 603.500, 505.218 604.387 C 509.237 606.131, 514.697 606.478, 516.830 605.126 C 518.030 604.365, 507.069 601.919, 496 600.477 C 492.954 600.081, 493.083 600.200, 497 601.398 M 535.126 607.905 C 537.101 609.187, 548.181 612.152, 548.776 611.558 C 549.973 610.360, 547.430 609.159, 542.356 608.525 C 539.238 608.136, 535.970 607.599, 535.093 607.333 C 533.687 606.906, 533.691 606.973, 535.126 607.905 M 105.178 639.031 C 107.381 640.328, 117.064 641.480, 115 640.200 C 114.175 639.689, 111.250 638.995, 108.500 638.657 C 104.987 638.227, 103.999 638.338, 105.178 639.031 M 123 640 L 117.500 640.674 123.500 640.767 C 126.800 640.818, 130.400 640.473, 131.500 640 C 133.306 639.224, 133.258 639.150, 131 639.233 C 129.625 639.284, 126.025 639.629, 123 640" stroke="none" fill="#fafafa" fill-rule="evenodd"/></svg>